<?xml version="1.0" encoding="UTF-8" standalone="no"?>
<!-- Created with Inkscape (http://www.inkscape.org/) -->

<svg
   xmlns:dc="http://purl.org/dc/elements/1.1/"
   xmlns:cc="http://creativecommons.org/ns#"
   xmlns:rdf="http://www.w3.org/1999/02/22-rdf-syntax-ns#"
   xmlns:svg="http://www.w3.org/2000/svg"
   xmlns="http://www.w3.org/2000/svg"
   xmlns:sodipodi="http://sodipodi.sourceforge.net/DTD/sodipodi-0.dtd"
   xmlns:inkscape="http://www.inkscape.org/namespaces/inkscape"
   width="128"
   height="128"
   id="svg2"
   version="1.1"
   inkscape:version="0.48.2 r9819"
   sodipodi:docname="favicon.svg"
   inkscape:export-filename="/Users/logangilmour/logangilmour.github.com/favicon.png"
   inkscape:export-xdpi="22.5"
   inkscape:export-ydpi="22.5">
  <defs
     id="defs4" />
  <sodipodi:namedview
     id="base"
     pagecolor="#ffffff"
     bordercolor="#666666"
     borderopacity="1.0"
     inkscape:pageopacity="0.0"
     inkscape:pageshadow="2"
     inkscape:zoom="2.8284271"
     inkscape:cx="70.695883"
     inkscape:cy="31.251081"
     inkscape:document-units="px"
     inkscape:current-layer="layer1"
     showgrid="true"
     inkscape:window-width="1039"
     inkscape:window-height="917"
     inkscape:window-x="56"
     inkscape:window-y="0"
     inkscape:window-maximized="0">
    <inkscape:grid
       type="xygrid"
       id="grid3004"
       empspacing="5"
       visible="true"
       enabled="true"
       snapvisiblegridlinesonly="true" />
  </sodipodi:namedview>
  <metadata
     id="metadata7">
    <rdf:RDF>
      <cc:Work
         rdf:about="">
        <dc:format>image/svg+xml</dc:format>
        <dc:type
           rdf:resource="http://purl.org/dc/dcmitype/StillImage" />
        <dc:title></dc:title>
      </cc:Work>
    </rdf:RDF>
  </metadata>
  <g
     inkscape:label="Layer 1"
     inkscape:groupmode="layer"
     id="layer1"
     transform="translate(0,-924.3622)">
    <rect
       id="rect3006"
       width="35"
       height="35"
       x="-9.0796757"
       y="1042.3715"
       ry="0"
       style="fill:none;stroke:none"
       inkscape:export-filename="/Users/logangilmour/logangilmour.github.com/favicon.png"
       inkscape:export-xdpi="82.285713"
       inkscape:export-ydpi="82.285713" />
    <text
       xml:space="preserve"
       style="font-size:40px;font-style:normal;font-weight:normal;line-height:125%;letter-spacing:0px;word-spacing:0px;fill:#000000;fill-opacity:1;stroke:none;font-family:Sans"
       x="-40"
       y="429.50504"
       id="text2993"
       sodipodi:linespacing="125%"><tspan
         sodipodi:role="line"
         id="tspan2995"
         x="-40"
         y="429.50504" /></text>
    <g
       style="font-size:43.41776276px;font-style:normal;font-variant:normal;font-weight:normal;font-stretch:normal;line-height:125%;letter-spacing:0px;word-spacing:0px;fill:#000000;fill-opacity:1;stroke:none;font-family:Georgia;-inkscape-font-specification:Georgia"
       id="text3795"
       transform="matrix(3.9219886,0,0,3.9219886,4.0355681,-3075.943)"
       inkscape:export-xdpi="90"
       inkscape:export-ydpi="90">
      <path
         d="m 30.055148,1039.2867 c -0.339232,0.042 -0.798566,0.1131 -1.378005,0.212 -0.565365,0.085 -1.024699,0.212 -1.378005,0.3816 -0.42403,0.212 -0.727897,0.5159 -0.911604,0.9116 -0.169628,0.3816 -0.254428,0.8339 -0.2544,1.3568 l 0,2.332 c -2.8e-5,1.696 0.007,2.8408 0.0212,3.4344 0.02824,0.5936 0.05651,1.0812 0.0848,1.4628 -1.879766,0.848 -3.752438,1.4982 -5.618021,1.9504 -1.865627,0.4523 -3.695899,0.6784 -5.490821,0.6784 -1.922155,0 -3.773626,-0.3604 -5.5544205,-1.0812 -1.7808156,-0.7208 -3.3354866,-1.7454 -4.6640175,-3.074 -1.3426764,-1.3427 -2.409746,-2.9751 -3.201212,-4.8972 -0.79147171,-1.9221 -1.18720613,-4.0704 -1.18720448,-6.4448 -1.65e-6,-2.2896 0.37453271,-4.4096 1.12360418,-6.3601 0.7631994,-1.9645 1.8373356,-3.6675 3.2224121,-5.1092 1.3426644,-1.4133 2.9397354,-2.5086 4.791218,-3.286 1.8655942,-0.7914 3.8584002,-1.1872 5.9784222,-1.1872 1.695988,0 3.172925,0.205 4.430817,0.6148 1.257849,0.4099 2.367318,0.9046 3.328412,1.484 l 0.869204,-1.4416 1.696006,0 0.190801,10.5153 -1.738407,0 c -0.296826,-1.159 -0.664294,-2.2967 -1.102404,-3.4133 -0.438159,-1.1306 -1.003494,-2.1411 -1.696006,-3.0316 -0.692558,-0.8903 -1.540561,-1.597 -2.54401,-2.12 -0.989356,-0.537 -2.176559,-0.8056 -3.561613,-0.8056 -1.512288,0 -2.862025,0.311 -4.049215,0.9328 -1.187216,0.6078 -2.2189525,1.5194 -3.0952121,2.7348 -0.8621452,1.1731 -1.5264137,2.6359 -1.9928074,4.3885 -0.4664088,1.7525 -0.6996095,3.71 -0.6996027,5.8724 -6.8e-6,1.908 0.2261272,3.71 0.6784026,5.406 0.4663938,1.6819 1.137729,3.1376 2.0140075,4.3672 0.8762596,1.2579 1.9715961,2.2472 3.2860121,2.968 1.314391,0.7208 2.805462,1.0812 4.473217,1.0812 1.24372,0 2.374389,-0.1908 3.392013,-0.5724 1.031715,-0.3816 1.759584,-0.7844 2.183608,-1.2084 0.113044,-0.7349 0.169578,-1.4769 0.169601,-2.226 0.01411,-0.7491 0.02118,-1.3851 0.0212,-1.908 l 0,-1.6536 c -2.3e-5,-0.5936 -0.08482,-1.1165 -0.254401,-1.5688 -0.15549,-0.4664 -0.487624,-0.8056 -0.996404,-1.0176 -0.466423,-0.212 -1.102425,-0.3675 -1.908007,-0.4664 -0.791489,-0.1131 -1.413357,-0.1837 -1.865607,-0.212 l 0,-1.5476 13.186449,0 0,1.5476"
         id="path3800"
         inkscape:connector-curvature="0" />
    </g>
  </g>
</svg>
